G04 #@! TF.FileFunction,Legend,Top*
%FSLAX46Y46*%
G04 Gerber Fmt 4.6, Leading zero omitted, Abs format (unit mm)*
G04 Created by KiCad (PCBNEW 4.0.0-rc1-stable) date 10/20/2015 7:52:27 PM*
%MOMM*%
G01*
G04 APERTURE LIST*
%ADD10C,0.100000*%
%ADD11C,0.150000*%
G04 APERTURE END LIST*
D10*
D11*
X134620000Y-130810000D02*
X134620000Y-133350000D01*
X134900000Y-127990000D02*
X134900000Y-129540000D01*
X134620000Y-130810000D02*
X132080000Y-130810000D01*
X131800000Y-129540000D02*
X131800000Y-127990000D01*
X131800000Y-127990000D02*
X134900000Y-127990000D01*
X132080000Y-130810000D02*
X132080000Y-133350000D01*
X132080000Y-133350000D02*
X134620000Y-133350000D01*
X138430000Y-152400000D02*
X138430000Y-147320000D01*
X138430000Y-147320000D02*
X140970000Y-147320000D01*
X148590000Y-152400000D02*
X148590000Y-147320000D01*
X148590000Y-147320000D02*
X146050000Y-147320000D01*
X151130000Y-152400000D02*
X151130000Y-147320000D01*
X151130000Y-147320000D02*
X153670000Y-147320000D01*
X161290000Y-152400000D02*
X161290000Y-147320000D01*
X161290000Y-147320000D02*
X158750000Y-147320000D01*
X166370000Y-142240000D02*
X161290000Y-142240000D01*
X161290000Y-142240000D02*
X161290000Y-139700000D01*
X166370000Y-132080000D02*
X161290000Y-132080000D01*
X161290000Y-132080000D02*
X161290000Y-134620000D01*
X166370000Y-129540000D02*
X161290000Y-129540000D01*
X161290000Y-129540000D02*
X161290000Y-127000000D01*
X166370000Y-119380000D02*
X161290000Y-119380000D01*
X161290000Y-119380000D02*
X161290000Y-121920000D01*
X161290000Y-110490000D02*
X161290000Y-115570000D01*
X161290000Y-115570000D02*
X158750000Y-115570000D01*
X151130000Y-110490000D02*
X151130000Y-115570000D01*
X151130000Y-115570000D02*
X153670000Y-115570000D01*
X148590000Y-110490000D02*
X148590000Y-115570000D01*
X148590000Y-115570000D02*
X146050000Y-115570000D01*
X138430000Y-110490000D02*
X138430000Y-115570000D01*
X138430000Y-115570000D02*
X140970000Y-115570000D01*
X132611905Y-124892381D02*
X132611905Y-123892381D01*
X132992858Y-123892381D01*
X133088096Y-123940000D01*
X133135715Y-123987619D01*
X133183334Y-124082857D01*
X133183334Y-124225714D01*
X133135715Y-124320952D01*
X133088096Y-124368571D01*
X132992858Y-124416190D01*
X132611905Y-124416190D01*
X133564286Y-123987619D02*
X133611905Y-123940000D01*
X133707143Y-123892381D01*
X133945239Y-123892381D01*
X134040477Y-123940000D01*
X134088096Y-123987619D01*
X134135715Y-124082857D01*
X134135715Y-124178095D01*
X134088096Y-124320952D01*
X133516667Y-124892381D01*
X134135715Y-124892381D01*
X147851905Y-146502381D02*
X147851905Y-145502381D01*
X148232858Y-145502381D01*
X148328096Y-145550000D01*
X148375715Y-145597619D01*
X148423334Y-145692857D01*
X148423334Y-145835714D01*
X148375715Y-145930952D01*
X148328096Y-145978571D01*
X148232858Y-146026190D01*
X147851905Y-146026190D01*
X148756667Y-145502381D02*
X149375715Y-145502381D01*
X149042381Y-145883333D01*
X149185239Y-145883333D01*
X149280477Y-145930952D01*
X149328096Y-145978571D01*
X149375715Y-146073810D01*
X149375715Y-146311905D01*
X149328096Y-146407143D01*
X149280477Y-146454762D01*
X149185239Y-146502381D01*
X148899524Y-146502381D01*
X148804286Y-146454762D01*
X148756667Y-146407143D01*
X160551905Y-146502381D02*
X160551905Y-145502381D01*
X160932858Y-145502381D01*
X161028096Y-145550000D01*
X161075715Y-145597619D01*
X161123334Y-145692857D01*
X161123334Y-145835714D01*
X161075715Y-145930952D01*
X161028096Y-145978571D01*
X160932858Y-146026190D01*
X160551905Y-146026190D01*
X161980477Y-145835714D02*
X161980477Y-146502381D01*
X161742381Y-145454762D02*
X161504286Y-146169048D01*
X162123334Y-146169048D01*
X160472381Y-132818095D02*
X159472381Y-132818095D01*
X159472381Y-132437142D01*
X159520000Y-132341904D01*
X159567619Y-132294285D01*
X159662857Y-132246666D01*
X159805714Y-132246666D01*
X159900952Y-132294285D01*
X159948571Y-132341904D01*
X159996190Y-132437142D01*
X159996190Y-132818095D01*
X159472381Y-131341904D02*
X159472381Y-131818095D01*
X159948571Y-131865714D01*
X159900952Y-131818095D01*
X159853333Y-131722857D01*
X159853333Y-131484761D01*
X159900952Y-131389523D01*
X159948571Y-131341904D01*
X160043810Y-131294285D01*
X160281905Y-131294285D01*
X160377143Y-131341904D01*
X160424762Y-131389523D01*
X160472381Y-131484761D01*
X160472381Y-131722857D01*
X160424762Y-131818095D01*
X160377143Y-131865714D01*
X160472381Y-120118095D02*
X159472381Y-120118095D01*
X159472381Y-119737142D01*
X159520000Y-119641904D01*
X159567619Y-119594285D01*
X159662857Y-119546666D01*
X159805714Y-119546666D01*
X159900952Y-119594285D01*
X159948571Y-119641904D01*
X159996190Y-119737142D01*
X159996190Y-120118095D01*
X159472381Y-118689523D02*
X159472381Y-118880000D01*
X159520000Y-118975238D01*
X159567619Y-119022857D01*
X159710476Y-119118095D01*
X159900952Y-119165714D01*
X160281905Y-119165714D01*
X160377143Y-119118095D01*
X160424762Y-119070476D01*
X160472381Y-118975238D01*
X160472381Y-118784761D01*
X160424762Y-118689523D01*
X160377143Y-118641904D01*
X160281905Y-118594285D01*
X160043810Y-118594285D01*
X159948571Y-118641904D01*
X159900952Y-118689523D01*
X159853333Y-118784761D01*
X159853333Y-118975238D01*
X159900952Y-119070476D01*
X159948571Y-119118095D01*
X160043810Y-119165714D01*
X150391905Y-117292381D02*
X150391905Y-116292381D01*
X150772858Y-116292381D01*
X150868096Y-116340000D01*
X150915715Y-116387619D01*
X150963334Y-116482857D01*
X150963334Y-116625714D01*
X150915715Y-116720952D01*
X150868096Y-116768571D01*
X150772858Y-116816190D01*
X150391905Y-116816190D01*
X151296667Y-116292381D02*
X151963334Y-116292381D01*
X151534762Y-117292381D01*
X137691905Y-117292381D02*
X137691905Y-116292381D01*
X138072858Y-116292381D01*
X138168096Y-116340000D01*
X138215715Y-116387619D01*
X138263334Y-116482857D01*
X138263334Y-116625714D01*
X138215715Y-116720952D01*
X138168096Y-116768571D01*
X138072858Y-116816190D01*
X137691905Y-116816190D01*
X138834762Y-116720952D02*
X138739524Y-116673333D01*
X138691905Y-116625714D01*
X138644286Y-116530476D01*
X138644286Y-116482857D01*
X138691905Y-116387619D01*
X138739524Y-116340000D01*
X138834762Y-116292381D01*
X139025239Y-116292381D01*
X139120477Y-116340000D01*
X139168096Y-116387619D01*
X139215715Y-116482857D01*
X139215715Y-116530476D01*
X139168096Y-116625714D01*
X139120477Y-116673333D01*
X139025239Y-116720952D01*
X138834762Y-116720952D01*
X138739524Y-116768571D01*
X138691905Y-116816190D01*
X138644286Y-116911429D01*
X138644286Y-117101905D01*
X138691905Y-117197143D01*
X138739524Y-117244762D01*
X138834762Y-117292381D01*
X139025239Y-117292381D01*
X139120477Y-117244762D01*
X139168096Y-117197143D01*
X139215715Y-117101905D01*
X139215715Y-116911429D01*
X139168096Y-116816190D01*
X139120477Y-116768571D01*
X139025239Y-116720952D01*
M02*
